<?xml version="1.0" encoding="UTF-8"?>
<svg xmlns="http://www.w3.org/2000/svg" version="1.1" viewBox="0 0 100 100">
    <defs>
        <style type="text/css">
            polygon {
                fill: white;
                stroke-width: 0.5px;
                stroke: #444;
            }
        </style>
    </defs>
    <polygon points="0,0 30,0 20,13.333333333333334"></polygon>
    <polygon points="0,0 0,20 20,13.333333333333334"></polygon>
    <polygon points="30,0 55,0 20,13.333333333333334"></polygon>
    <polygon points="55,0 45,20 20,13.333333333333334"></polygon>
    <polygon points="55,0 80,0 70,13.333333333333334"></polygon>
    <polygon points="55,0 45,20 70,13.333333333333334"></polygon>
    <polygon points="80,0 100,0 70,13.333333333333334"></polygon>
    <polygon points="100,0 100,20 70,13.333333333333334"></polygon>
    <polygon points="0,20 20,13.333333333333334 30,30"></polygon>
    <polygon points="0,20 0,36.66666666666667 30,30"></polygon>
    <polygon points="20,13.333333333333334 45,20 30,30"></polygon>
    <polygon points="45,20 55,36.66666666666667 30,30"></polygon>
    <polygon points="45,20 70,13.333333333333334 80,30"></polygon>
    <polygon points="45,20 55,36.66666666666667 80,30"></polygon>
    <polygon points="70,13.333333333333334 100,20 80,30"></polygon>
    <polygon points="100,20 100,36.66666666666667 80,30"></polygon>
    <polygon points="0,36.66666666666667 30,30 20,46.666666666666664"></polygon>
    <polygon points="0,36.66666666666667 0,53.333333333333336 20,46.666666666666664"></polygon>
    <polygon points="30,30 55,36.66666666666667 20,46.666666666666664"></polygon>
    <polygon points="55,36.66666666666667 45,53.333333333333336 20,46.666666666666664"></polygon>
    <polygon points="55,36.66666666666667 80,30 70,46.666666666666664"></polygon>
    <polygon points="55,36.66666666666667 45,53.333333333333336 70,46.666666666666664"></polygon>
    <polygon points="80,30 100,36.66666666666667 70,46.666666666666664"></polygon>
    <polygon points="100,36.66666666666667 100,53.333333333333336 70,46.666666666666664"></polygon>
    <polygon points="0,53.333333333333336 20,46.666666666666664 30,63.333333333333336"></polygon>
    <polygon points="0,53.333333333333336 0,70 30,63.333333333333336"></polygon>
    <polygon points="20,46.666666666666664 45,53.333333333333336 30,63.333333333333336"></polygon>
    <polygon points="45,53.333333333333336 55,70 30,63.333333333333336"></polygon>
    <polygon points="45,53.333333333333336 70,46.666666666666664 80,63.333333333333336"></polygon>
    <polygon points="45,53.333333333333336 55,70 80,63.333333333333336"></polygon>
    <polygon points="70,46.666666666666664 100,53.333333333333336 80,63.333333333333336"></polygon>
    <polygon points="100,53.333333333333336 100,70 80,63.333333333333336"></polygon>
    <polygon points="0,70 30,63.333333333333336 20,80.00000000000001"></polygon>
    <polygon points="0,70 0,86.66666666666667 20,80.00000000000001"></polygon>
    <polygon points="30,63.333333333333336 55,70 20,80.00000000000001"></polygon>
    <polygon points="55,70 45,86.66666666666667 20,80.00000000000001"></polygon>
    <polygon points="55,70 80,63.333333333333336 70,80.00000000000001"></polygon>
    <polygon points="55,70 45,86.66666666666667 70,80.00000000000001"></polygon>
    <polygon points="80,63.333333333333336 100,70 70,80.00000000000001"></polygon>
    <polygon points="100,70 100,86.66666666666667 70,80.00000000000001"></polygon>
    <polygon points="0,86.66666666666667 20,80.00000000000001 30,100"></polygon>
    <polygon points="0,86.66666666666667 0,100 30,100"></polygon>
    <polygon points="20,80.00000000000001 45,86.66666666666667 30,100"></polygon>
    <polygon points="45,86.66666666666667 55,100 30,100"></polygon>
    <polygon points="45,86.66666666666667 70,80.00000000000001 80,100"></polygon>
    <polygon points="45,86.66666666666667 55,100 80,100"></polygon>
    <polygon points="70,80.00000000000001 100,86.66666666666667 80,100"></polygon>
    <polygon points="100,86.66666666666667 100,100 80,100"></polygon>
</svg>